<?xml version="1.0" encoding="UTF-8"?>
<svg xmlns="http://www.w3.org/2000/svg" version="1.1" viewBox="0 0 512 512">
  <defs>
    <style>
      .cls-1 {
        fill: #fff;
      }
    </style>
  </defs>
  <!-- Generator: Adobe Illustrator 28.6.0, SVG Export Plug-In . SVG Version: 1.2.0 Build 709)  -->
  <g>
    <g id="Outline">
      <path class="cls-1" d="M21.3,234.7h469.3c11.8,0,21.3,9.6,21.3,21.3h0c0,11.8-9.6,21.3-21.3,21.3H21.3c-11.8,0-21.3-9.6-21.3-21.3h0c0-11.8,9.6-21.3,21.3-21.3Z"/>
      <path class="cls-1" d="M21.3,85.3h469.3c11.8,0,21.3,9.6,21.3,21.3h0c0,11.8-9.6,21.3-21.3,21.3H21.3c-11.8,0-21.3-9.6-21.3-21.3h0c0-11.8,9.6-21.3,21.3-21.3Z"/>
      <path class="cls-1" d="M21.3,384h469.3c11.8,0,21.3,9.6,21.3,21.3h0c0,11.8-9.6,21.3-21.3,21.3H21.3c-11.8,0-21.3-9.6-21.3-21.3h0c0-11.8,9.6-21.3,21.3-21.3Z"/>
    </g>
  </g>
</svg>